:version 1.10
:name ASF
:units
  mass 1
  length 1
  angle deg
:documentation
  ASF file generated by Kaydara
:root
  axis xyz
  order  tx ty tz rx ry rz
  position 0 0 0
  orientation 0 0 0
:bonedata
  begin
    id 1
    name LeftUpLegDummy
    direction 1 -2.30186e-007 -8.31532e-007
    length 2.93387
    axis 0 0 0 xyz
  end
  begin
    id 2
    name LeftUpLeg
    direction -1.82929e-007 -1 -1.48925e-009
    length 17.3336
    axis -3.48766 0.00143442 -0.000521554 xyz
    dof rx ry rz
  end
  begin
    id 3
    name LeftLeg
    direction -1.82929e-007 -1 -5.23717e-011
    length 14.9995
    axis 3.68178 -0.00654042 -0.000282425 xyz
    dof rx ry rz
  end
  begin
    id 4
    name LeftFoot
    direction 8.31532e-007 -4.54534e-011 1
    length 6.74421
    axis 1.87234e-006 4.66016e-005 -5.96866e-006 xyz
    dof rx ry rz
  end
  begin
    id 5
    name LeftToes
    direction 0.00818058 -0.00485161 0.999955
    length 3.85048
    axis 1.06247e-005 4.65869e-005 -5.96999e-006 xyz
    dof rx ry rz
  end
  begin
    id 6
    name SpineDummy
    direction -5.8607e-008 0.943407 -0.331637
    length 5.93572
    axis 0 0 0 xyz
  end
  begin
    id 7
    name Spine
    direction -1.04988e-007 0.999988 0.00495137
    length 10.1015
    axis -0.001389 0.000121417 6.61666e-006 xyz
    dof rx ry rz
  end
  begin
    id 8
    name Spine1
    direction 0 0 0
    length 0
    axis -0.001389 0.00012144 6.56766e-006 xyz
    dof rx ry rz
  end
  begin
    id 9
    name RightShoulderDummy
    direction -0.98348 0.17941 -0.0240696
    length 3.59882
    axis -0.001389 0.00012144 6.56766e-006 xyz
  end
  begin
    id 10
    name RightShoulder
    direction -0.978693 0.204882 0.0135597
    length 2.70001
    axis 0.215806 0.000203631 -0.00679732 xyz
    dof rx ry rz
  end
  begin
    id 11
    name RightArm
    direction -1 3.85509e-006 8.31394e-007
    length 10.2459
    axis -23.2009 -0.134239 -0.964098 xyz
    dof rx ry rz
  end
  begin
    id 12
    name RightForeArm
    direction -1 3.85569e-006 8.3129e-007
    length 8.16799
    axis -9.92322 0.0658061 0.17887 xyz
    dof rx ry rz
  end
  begin
    id 13
    name RightHand
    direction -0.992843 -0.0414604 0.112003
    length 5.28593
    axis -0.00960638 0.00330669 -0.185225 xyz
    dof rx ry rz
  end
  begin
    id 14
    name LeftShoulder1Dummy
    direction 0.983523 0.179172 -0.0240748
    length 3.59866
    axis -0.001389 0.00012144 6.56766e-006 xyz
  end
  begin
    id 15
    name LeftShoulder1
    direction 0.978627 0.205195 0.0135605
    length 2.70019
    axis -0.001389 0.00012144 6.57583e-006 xyz
    dof rx ry rz
  end
  begin
    id 16
    name LeftArm
    direction 1 3.51895e-006 -8.60188e-007
    length 10.2459
    axis -23.1894 0.134785 0.967513 xyz
    dof rx ry rz
  end
  begin
    id 17
    name LeftForeArm
    direction 1 3.51921e-006 -7.32029e-007
    length 8.16799
    axis -9.91835 -0.0656957 -0.177789 xyz
    dof rx ry rz
  end
  begin
    id 18
    name LeftHand
    direction 0.992938 -0.0411636 0.11126
    length 5.32135
    axis -0.00960237 -0.00340661 0.185177 xyz
    dof rx ry rz
  end
  begin
    id 19
    name HEadDummy
    direction 1.01974e-006 0.999861 -0.016675
    length 2.99946
    axis -0.001389 0.00012144 6.56766e-006 xyz
  end
  begin
    id 20
    name HEad
    direction -0.0222689 0.980941 0.193023
    length 5.12695
    axis -0.001389 0.00012144 6.56766e-006 xyz
    dof rx ry rz
  end
  begin
    id 21
    name RightUpLegDummy
    direction -1 2.30186e-007 8.31532e-007
    length 2.93387
    axis 0 0 0 xyz
  end
  begin
    id 22
    name RightUpLeg
    direction -1.82966e-007 -1 1.56832e-007
    length 17.3336
    axis -3.4909 -0.000906625 0.00028951 xyz
    dof rx ry rz
  end
  begin
    id 23
    name RightLeg
    direction -1.82786e-007 -1 -1.80317e-007
    length 14.9995
    axis 3.68513 0.0193739 -0.131021 xyz
    dof rx ry rz
  end
  begin
    id 24
    name RightFoot
    direction 8.31721e-007 -4.63324e-011 1
    length 6.74421
    axis 4.81691e-005 -0.120479 -0.188785 xyz
    dof rx ry rz
  end
  begin
    id 25
    name RightToes
    direction 0.00124746 -0.014064 0.9999
    length 3.85082
    axis 0.000481921 0.542163 -0.142575 xyz
    dof rx ry rz
  end
:hierarchy
  begin
    root LeftUpLegDummy SpineDummy RightUpLegDummy
    LeftUpLegDummy LeftUpLeg
    LeftUpLeg LeftLeg
    LeftLeg LeftFoot
    LeftFoot LeftToes
    SpineDummy Spine
    Spine Spine1
    Spine1 RightShoulderDummy LeftShoulder1Dummy HEadDummy
    RightShoulderDummy RightShoulder
    RightShoulder RightArm
    RightArm RightForeArm
    RightForeArm RightHand
    LeftShoulder1Dummy LeftShoulder1
    LeftShoulder1 LeftArm
    LeftArm LeftForeArm
    LeftForeArm LeftHand
    HEadDummy HEad
    RightUpLegDummy RightUpLeg
    RightUpLeg RightLeg
    RightLeg RightFoot
    RightFoot RightToes
  end

:SAMPLES-PER-SECOND 30
:FULLY-SPECIFIED
:DEGREES
267
root  1.87741 34.133 16.5836 4.18184 24.8327 1.21039
LeftUpLeg  -6.89497 10.8914 -0.848626
LeftLeg  12.5484 6.98796 1.08584
LeftFoot  -2.22188 -0.00441384 -0.275937
LeftToes  -12.8265 1.92152e-006 4.03786e-008
Spine  2.18729 1.50332 -1.40581
Spine1  3.97726 3.36448 -3.15153
RightShoulder  0.060991 4.07426 6.85752
RightArm  -23.0102 3.93562 62.4367
RightForeArm  15.7759 62.9045 20.2468
RightHand  0.0218974 -0.162923 -14.3662
LeftShoulder1  0.0177288 0.373406 -7.58352
LeftArm  -16.0261 20.1592 -68.6491
LeftForeArm  23.2965 -21.0664 -3.88816
LeftHand  0.196099 4.83783 4.26356
HEad  -3.17757 -26.8836 2.94886
RightUpLeg  -11.498 -10.0433 -8.72957
RightLeg  6.31807 3.53865 0.164205
RightFoot  11.9574 -0.0423673 0.782045
RightToes  -36.7624 -0.204255 -0.299574
268
root  1.75749 34.1189 16.6181 4.33359 24.7943 1.1753
LeftUpLeg  -7.06572 11.0675 -0.630162
LeftLeg  12.5097 6.84453 1.05892
LeftFoot  -2.14297 -0.00476705 -0.254888
LeftToes  -13.388 1.92152e-006 4.03786e-008
Spine  2.04295 1.66427 -1.5333
Spine1  3.66017 3.68443 -3.35418
RightShoulder  0.0616335 3.86087 6.02453
RightArm  -15.3003 11.4002 64.0331
RightForeArm  6.04136 50.3493 12.2966
RightHand  2.16225 -18.1227 -13.1222
LeftShoulder1  0.0231361 0.329599 -7.75763
LeftArm  -17.0114 19.6142 -68.4878
LeftForeArm  23.4646 -19.4984 -3.57367
LeftHand  0.214865 5.29305 4.27031
HEad  -1.80736 -26.4339 1.86991
RightUpLeg  -11.7611 -11.4074 -8.38662
RightLeg  6.43384 5.07783 0.245325
RightFoot  11.6901 -0.073229 1.0928
RightToes  -36.6619 -0.203937 -0.299095
269
root  1.65867 34.1083 16.6625 4.48454 25.4298 1.19958
LeftUpLeg  -7.32062 10.8873 -0.484995
LeftLeg  12.6134 6.46108 1.01172
LeftFoot  -2.02922 -0.00393824 -0.222381
LeftToes  -13.846 1.92152e-006 4.03786e-008
Spine  2.03271 2.21235 -1.62856
Spine1  3.55635 4.82587 -3.5468
RightShoulder  0.0736339 5.1713 5.17935
RightArm  -12.5109 14.6187 64.0198
RightForeArm  9.50395 46.3667 10.6673
RightHand  3.50681 -20.2986 -19.032
LeftShoulder1  0.0292284 0.286283 -8.07375
LeftArm  -17.0342 18.259 -68.2246
LeftForeArm  23.4624 -18.3391 -3.34524
LeftHand  0.232717 5.65308 4.33558
HEad  -0.650193 -27.2368 0.783614
RightUpLeg  -11.8413 -12.5397 -8.19318
RightLeg  6.63139 5.6317 0.291367
RightFoot  11.3371 -0.0807046 1.19053
RightToes  -36.5542 -0.203721 -0.298588
270
root  1.55247 34.1278 16.7245 4.86655 27.3384 1.23795
LeftUpLeg  -7.77729 10.3903 -0.350175
LeftLeg  12.3773 5.24644 0.7998
LeftFoot  -1.49203 -0.00164999 -0.126725
LeftToes  -14.4116 1.92152e-006 4.03786e-008
Spine  2.21665 2.91343 -1.89516
Spine1  3.84073 6.26555 -4.07644
RightShoulder  0.0781804 5.17612 4.75153
RightArm  -18.4678 13.0938 64.8804
RightForeArm  10.9907 54.4475 14.317
RightHand  4.04214 -19.8452 -22.4331
LeftShoulder1  0.0324444 0.301509 -7.85307
LeftArm  -16.8782 15.8349 -68.1744
LeftForeArm  24.0716 -17.6364 -3.20824
LeftHand  0.246079 5.85904 4.43064
HEad  -1.52355 -29.2486 1.6312
RightUpLeg  -11.4794 -13.2877 -8.10104
RightLeg  6.13042 4.45655 0.191831
RightFoot  11.3432 -0.0581245 0.962753
RightToes  -36.638 -0.203637 -0.298182
271
root  1.45374 34.159 16.8138 5.48926 30.8016 1.14724
LeftUpLeg  -8.72065 9.81102 -0.0917261
LeftLeg  12.2315 2.65189 0.397115
LeftFoot  -0.844912 -0.000196984 -0.0267244
LeftToes  -14.935 1.92152e-006 4.03786e-008
Spine  2.2724 2.98523 -1.83632
Spine1  3.94451 6.40069 -3.93005
RightShoulder  0.0732711 3.74712 4.59794
RightArm  -24.7819 11.5967 67.2901
RightForeArm  22.1316 65.6718 23.0808
RightHand  3.92313 -19.233 -22.4783
LeftShoulder1  0.0364426 0.336394 -8.28772
LeftArm  -17.7286 14.5062 -68.1695
LeftForeArm  24.4549 -17.7196 -3.2243
LeftHand  0.253107 5.62156 4.77596
HEad  -2.41104 -30.7177 1.39171
RightUpLeg  -10.876 -13.7514 -7.98357
RightLeg  5.36374 1.39043 0.0420149
RightFoot  11.559 0.00147731 0.362931
RightToes  -37.0735 -0.203712 -0.298002
272
root  1.3794 34.1961 16.9443 6.10496 34.9021 1.03391
LeftUpLeg  -9.51578 9.19418 0.217985
LeftLeg  11.6985 -0.55482 -0.0794929
LeftFoot  0.0679863 0.000701285 0.0112532
LeftToes  -15.9548 1.92152e-006 4.03786e-008
Spine  2.2805 2.64306 -1.61899
Spine1  3.99662 5.69207 -3.48446
RightShoulder  0.0696164 3.35827 3.64413
RightArm  -28.985 7.74359 69.6136
RightForeArm  39.9561 74.8824 41.137
RightHand  3.7411 -18.4638 -22.3452
LeftShoulder1  0.0384663 0.628294 -8.89188
LeftArm  -18.4867 13.8167 -68.1577
LeftForeArm  23.9614 -18.0136 -3.2816
LeftHand  0.250628 5.27224 5.06285
HEad  -2.89603 -31.5464 1.20755
RightUpLeg  -10.1533 -13.7441 -7.90193
RightLeg  4.81549 -2.73738 -0.0526805
RightFoot  11.7018 0.087473 -0.476015
RightToes  -37.6494 -0.203974 -0.298317
273
root  1.3226 34.2288 17.0966 6.54007 38.7035 0.940076
LeftUpLeg  -10.02 8.05889 0.552925
LeftLeg  11.0935 -3.03535 -0.395943
LeftFoot  0.94093 0.00644471 -0.0401971
LeftToes  -16.828 1.92152e-006 4.03786e-008
Spine  2.39745 2.46788 -1.40549
Spine1  4.26116 5.31491 -3.04369
RightShoulder  0.0650177 3.84159 3.31443
RightArm  -31.9912 1.49765 70.693
RightForeArm  70.3423 79.44 72.8386
RightHand  3.48302 -17.642 -21.7929
LeftShoulder1  0.0401116 0.554134 -9.08171
LeftArm  -18.6786 13.0066 -68.5475
LeftForeArm  23.6721 -17.9413 -3.26758
LeftHand  0.268575 5.09492 5.65344
HEad  -4.02465 -33.1271 2.61043
RightUpLeg  -9.49268 -13.0375 -7.85239
RightLeg  4.7236 -7.13716 -0.126875
RightFoot  11.6492 0.178794 -1.37493
RightToes  -38.2236 -0.20445 -0.299088
274
root  1.27703 34.2451 17.2397 6.72937 41.8632 0.843192
LeftUpLeg  -10.3238 6.44227 0.876152
LeftLeg  10.6896 -4.33124 -0.533119
LeftFoot  1.50496 0.0123211 -0.106403
LeftToes  -17.1103 1.92152e-006 4.03786e-008
Spine  2.52479 2.29686 -1.12509
Spine1  4.57432 4.91329 -2.42679
RightShoulder  0.0607737 3.88281 3.52539
RightArm  -31.446 -3.57402 70.9055
RightForeArm  69.7755 79.2835 70.2529
RightHand  3.4521 -16.4246 -23.2091
LeftShoulder1  0.0411347 0.228187 -9.05809
LeftArm  -18.624 12.6153 -69.2077
LeftForeArm  23.477 -17.7603 -3.23239
LeftHand  0.281277 5.21531 5.79239
HEad  -5.10659 -34.8704 4.21084
RightUpLeg  -9.01724 -12.65 -7.74524
RightLeg  5.14222 -10.5381 -0.263124
RightFoot  11.322 0.238385 -2.02685
RightToes  -38.6389 -0.205806 -0.299977
275
root  1.24654 34.2666 17.3609 6.66206 43.5683 0.631338
LeftUpLeg  -10.3414 5.61598 1.21139
LeftLeg  10.346 -4.96405 -0.580445
LeftFoot  1.93947 0.0167893 -0.161976
LeftToes  -17.524 1.92152e-006 4.03786e-008
Spine  2.49543 2.05429 -0.92433
Spine1  4.58572 4.37021 -1.97261
RightShoulder  0.0604821 3.36312 4.33934
RightArm  -27.6137 -3.5347 70.6065
RightForeArm  31.409 70.4614 30.0117
RightHand  3.60486 -16.4978 -24.1147
LeftShoulder1  0.0412919 0.128658 -9.05196
LeftArm  -18.7722 13.2136 -69.5476
LeftForeArm  23.2909 -17.6924 -3.21923
LeftHand  0.303305 5.50474 5.92526
HEad  -4.84758 -36.0034 5.35912
RightUpLeg  -8.72826 -12.4294 -7.51093
RightLeg  5.51413 -12.35 -0.387031
RightFoot  11.0573 0.264018 -2.34942
RightToes  -38.4617 -0.206313 -0.300648
276
root  1.23205 34.2675 17.4586 6.45866 43.3745 0.418146
LeftUpLeg  -10.3048 5.76693 1.49201
LeftLeg  10.6492 -4.82653 -0.590346
LeftFoot  1.77938 0.0158102 -0.142703
LeftToes  -17.5345 1.92152e-006 4.03786e-008
Spine  2.41204 2.0869 -0.777786
Spine1  4.42236 4.44754 -1.69794
RightShoulder  0.0686065 4.39895 5.91286
RightArm  -27.2263 0.763351 69.9231
RightForeArm  14.6515 53.4194 13.7796
RightHand  3.04459 -16.382 -20.543
LeftShoulder1  0.0403395 0.193091 -9.39859
LeftArm  -18.1103 14.3622 -69.3048
LeftForeArm  22.7878 -17.6034 -3.20204
LeftHand  0.29183 5.62427 5.55903
HEad  -3.66566 -36.5887 5.19982
RightUpLeg  -8.97667 -12.5956 -7.22767
RightLeg  6.30028 -11.9975 -0.53977
RightFoot  10.5742 0.236027 -2.17243
RightToes  -38.06 -0.203174 -0.300764
277
root  1.23495 34.2378 17.5371 6.20243 42.2323 0.33398
LeftUpLeg  -10.282 6.1086 1.66866
LeftLeg  11.5906 -4.09145 -0.569218
LeftFoot  1.10639 0.0107828 -0.0688852
LeftToes  -17.6983 1.92152e-006 4.03786e-008
Spine  2.32419 2.44227 -0.603614
Spine1  4.24689 5.17931 -1.36223
RightShoulder  0.0787028 5.33885 6.85849
RightArm  -28.7983 4.24575 70.3999
RightForeArm  14.6243 39.9587 8.49976
RightHand  3.39916 -16.5492 -22.6847
LeftShoulder1  0.0380335 0.237571 -9.56533
LeftArm  -16.6244 15.2887 -69.3008
LeftForeArm  22.9573 -17.0014 -3.08568
LeftHand  0.250345 5.58097 4.75688
HEad  -2.95092 -37.0959 3.79179
RightUpLeg  -9.19904 -13.067 -7.06276
RightLeg  6.87237 -10.4373 -0.574422
RightFoot  9.90917 0.184028 -1.74491
RightToes  -37.4033 -0.198614 -0.299989
278
root  1.26712 34.2214 17.616 6.00817 41.2144 0.356247
LeftUpLeg  -9.96327 6.24679 1.74059
LeftLeg  11.9712 -3.30214 -0.482216
LeftFoot  0.6632 0.00736631 -0.0270271
LeftToes  -17.7482 1.92152e-006 4.03786e-008
Spine  2.23306 2.64722 -0.519386
Spine1  4.10234 5.58175 -1.18229
RightShoulder  0.0755451 5.11135 6.61513
RightArm  -31.6946 5.64713 72.6276
RightForeArm  16.8018 32.7048 6.49881
RightHand  4.26387 -16.0819 -29.1441
LeftShoulder1  0.0316404 0.558323 -9.14146
LeftArm  -16.1662 16.0086 -69.8131
LeftForeArm  24.6195 -16.2385 -2.93904
LeftHand  0.199564 5.75218 3.59638
HEad  -3.52538 -36.9481 2.86627
RightUpLeg  -9.02432 -14.172 -7.00558
RightLeg  6.73493 -8.37491 -0.441845
RightFoot  9.54894 0.142523 -1.32861
RightToes  -36.9069 -0.194257 -0.296991
279
root  1.32019 34.2277 17.699 5.99391 40.4243 0.440957
LeftUpLeg  -9.5115 6.4902 1.722
LeftLeg  11.7553 -2.82386 -0.401756
LeftFoot  0.570886 0.0056958 -0.017789
LeftToes  -17.7704 1.92152e-006 4.03786e-008
Spine  2.1068 2.51489 -0.4499
Spine1  3.89188 5.30358 -1.04713
RightShoulder  0.0702373 5.03675 6.55421
RightArm  -34.1683 3.10452 73.8617
RightForeArm  19.798 35.392 7.19732
RightHand  4.16736 -14.8061 -30.9036
LeftShoulder1  0.0248631 0.873528 -9.00719
LeftArm  -17.2953 17.2106 -70.0844
LeftForeArm  26.3219 -15.8303 -2.86076
LeftHand  0.182191 5.98874 3.10835
HEad  -4.42586 -35.6242 2.55989
RightUpLeg  -8.82214 -14.9521 -7.02194
RightLeg  6.41411 -6.86595 -0.3242
RightFoot  9.43919 0.119144 -1.06543
RightToes  -36.6035 -0.191935 -0.295467
